<svg xmlns="http://www.w3.org/2000/svg" version="1.1" xmlns:xlink="http://www.w3.org/1999/xlink" width="50" height="50" viewBox="0 0 128 128" xml:space="preserve" class="icon"><g><g data-name="Glyph"><circle cx="64" cy="76" r="13.5" fill="#488d41"></circle><circle cx="103" cy="82.5" r="12" fill="#488d41"></circle><circle cx="25" cy="82.5" r="12" fill="#488d41"></circle><path d="M5.369 128h26.756a1.51 1.51 0 0 0 1.411-2.008 7.5 7.5 0 0 1-.374-1.479 29.857 29.857 0 0 1-.3-4.185 30.9 30.9 0 0 1 5.595-17.775 1.51 1.51 0 0 0-.439-2.133 24.431 24.431 0 0 0-37.3 20.767 23.213 23.213 0 0 0 .182 2.879A4.51 4.51 0 0 0 5.369 128zM90.022 100.489a1.51 1.51 0 0 0-.434 2.126 30.914 30.914 0 0 1 5.551 17.713 29.745 29.745 0 0 1-.3 4.183 7.407 7.407 0 0 1-.375 1.48A1.511 1.511 0 0 0 95.875 128h26.9a4.509 4.509 0 0 0 4.471-3.934 22.985 22.985 0 0 0 .183-2.879 24.428 24.428 0 0 0-37.41-20.7z" fill="#488d41"></path><path d="M35.862 120.328a26.856 26.856 0 0 0 .27 3.761A4.552 4.552 0 0 0 40.6 128h46.8a4.552 4.552 0 0 0 4.466-3.911 26.9 26.9 0 0 0 .271-3.761 28.139 28.139 0 1 0-56.277 0zM97.35 28.85c0 10.49-6.64 20.28-17.77 26.19a1.507 1.507 0 0 0 .79 2.82 39.471 39.471 0 0 0 4.4-.48l13.16 3.59c3.479 1.1 6.982-2.873 5.3-6.18a17.464 17.464 0 0 1-1.61-5.52 19.921 19.921 0 0 0 6.47-14.29c0-6.71-3.78-13.06-10.38-17.42a1.511 1.511 0 0 0-2.22 1.81 25.207 25.207 0 0 1 1.86 9.48z" fill="#488d41"></path><path d="M28.1 46.76a22.28 22.28 0 0 1-2.09 7.29c-1.938 3.934 2.1 8.528 6.24 7.26l16.72-4.56a48.6 48.6 0 0 0 8.16.7c20.53 0 37.22-12.83 37.22-28.6S77.66.25 57.13.25s-37.22 12.83-37.22 28.6c0 6.52 2.9 12.85 8.19 17.91zM75 24.5a4.5 4.5 0 1 1-4.5 4.5 4.5 4.5 0 0 1 4.5-4.5zm-18 0a4.5 4.5 0 1 1-4.5 4.5 4.5 4.5 0 0 1 4.5-4.5zm-18 0a4.5 4.5 0 1 1-4.5 4.5 4.5 4.5 0 0 1 4.5-4.5z" fill="#488d41"></path></g></g></svg>